<?xml version="1.0" encoding="utf-8"?>
<!-- Generator: Adobe Illustrator 25.2.1, SVG Export Plug-In . SVG Version: 6.00 Build 0)  -->
<svg version="1.1" id="Capa_1" xmlns="http://www.w3.org/2000/svg" xmlns:xlink="http://www.w3.org/1999/xlink" x="0px" y="0px"
	 viewBox="0 0 16 16" style="enable-background:new 0 0 16 16;" xml:space="preserve">
<style type="text/css">
	.st0{fill:#E73823;}
	.st1{fill:#020203;}
</style>
<g>
	<polygon class="st0" points="16,9.2 9.4,9.2 10.8,6.8 14.5,6.8 14.8,7.3 14.9,7.3 	"/>
	<polygon class="st1" points="14.5,6.8 11.7,6.8 11.3,6.2 10.9,5.4 10.5,6.2 10.1,6.8 8.7,9.2 8.4,9.8 7,12.2 6.5,13 5.7,14.4 
		5.1,15.5 3.9,13.4 3.9,13.4 3.7,13 1.5,9.2 1.2,8.8 0,6.8 6.6,6.8 5.2,9.2 4.3,9.2 5.1,10.6 5.9,9.2 7.3,6.8 9.1,3.6 9.5,3 
		10.4,1.4 10.9,0.5 11.9,2.2 11.9,2.2 12.3,3 12.3,3 14.2,6.2 	"/>
</g>
</svg>
