<?xml version="1.0" encoding="utf-8"?>
<!-- Generator: Adobe Illustrator 25.2.1, SVG Export Plug-In . SVG Version: 6.00 Build 0)  -->
<svg version="1.1" id="Layer_1" xmlns="http://www.w3.org/2000/svg" xmlns:xlink="http://www.w3.org/1999/xlink" x="0px" y="0px"
	 viewBox="0 0 147.4 138.33" style="enable-background:new 0 0 147.4 138.33;" xml:space="preserve">
<style type="text/css">
	.st0{fill:#FFFFFF;}
	.st1{fill:#FF2A0C;}
</style>
<g>
	<path class="st0" d="M143.94,77.15L131.9,56.47L101.29,4.93c-0.79-1.31-2.09-2.09-3.66-2.09l0,0c-1.57,0-2.88,0.79-3.66,2.09
		l-3.93,6.8c-0.52-1.05-1.57-1.83-2.62-2.09c-4.45-1.05-9.16-1.57-13.61-1.57c-13.08,0-25.64,4.19-36.37,12.3
		c-10.21,7.85-17.79,18.58-21.2,30.88c-0.52,1.05-0.26,2.36,0.26,3.4H7.09c-1.57,0-2.88,0.79-3.66,2.09s-0.79,2.88,0,4.19
		l42.65,72.48c0.79,1.31,2.09,2.09,3.66,2.09l0,0c1.57,0,2.88-0.79,3.66-2.09l4.97-8.37c0.52,1.05,1.57,1.83,2.62,2.09
		c4.19,0.79,8.37,1.31,12.82,1.31c13.35,0,25.91-4.19,36.37-12.3c9.68-7.33,17.01-17.53,20.67-29.05c0.26-1.05,0.26-2.36-0.26-3.4
		h9.94c1.57,0,2.88-0.79,3.66-2.09C144.73,80.02,144.73,78.45,143.94,77.15z"/>
	<g>
		<g>
			<path d="M20.17,52.55c3.4-11.51,10.21-21.46,19.89-28.78s21.46-11.25,33.76-11.25c4.19,0,8.64,0.52,12.82,1.57l-9.42,16.49
				c-1.05,0-2.09-0.26-3.4-0.26c-14.92,0-28.52,8.9-34.8,22.24H20.17z"/>
			<path d="M73.81,123.99c-3.93,0-7.85-0.52-11.78-1.31l9.42-16.49c0.79,0,1.57,0,2.36,0c14.13,0,27.48-8.11,34.02-20.67h19.1
				c-3.66,10.73-10.47,20.15-19.36,26.95C97.89,120.06,86.11,123.99,73.81,123.99z"/>
		</g>
		<polygon class="st1" points="140.28,79.24 85.33,79.24 97.1,58.83 128.24,58.83 130.86,63.02 131.12,63.54 		"/>
		<polygon points="128.24,58.83 104.43,58.83 101.55,53.86 97.89,47.84 94.48,53.86 91.61,58.83 79.57,79.24 76.95,84.21 
			65.44,103.84 61.51,110.64 54.97,122.15 49.74,131.05 40.06,114.3 40.06,114.3 37.7,110.64 19.12,79.24 17.03,75.31 7.09,58.83 
			62.3,58.83 50.26,79.24 43.2,79.24 49.48,90.23 56.02,79.24 67.79,58.83 82.97,32.66 85.85,27.43 93.44,14.35 97.62,7.02 
			105.74,20.89 105.74,20.89 109.66,27.43 109.66,27.43 125.36,53.86 		"/>
		<g>
			<path class="st0" d="M32.21,50.19l-3.66-1.83l1.31-2.36c0-0.26,0.26-0.52,0.52-0.52c0.26,0,0.52,0,0.79,0.26
				c0.26,0,0.52,0.26,0.52,0.52c0.26,0,0.52,0,0.79,0.26c0.26,0,0.26,0.26,0.52,0.26c0.26,0.26,0.26,0.52,0.26,1.05L32.21,50.19z
				 M30.38,48.36l1.05-1.83c0,0,0,0,0-0.26c0,0,0,0-0.26-0.26c-0.26,0-0.26,0-0.52,0l-1.05,1.83L30.38,48.36z M31.95,49.15
				l1.05-2.09c0,0,0-0.26-0.26-0.26s-0.26,0-0.52,0l-1.05,2.09L31.95,49.15z"/>
			<path class="st0" d="M34.04,46.53l-3.4-2.09l1.31-2.09c0.26-0.52,0.79-0.52,1.05-0.52s0.52,0.26,0.79,0.26
				c0.26,0.26,0.52,0.52,0.79,0.79c0,0,0,0.26,0,0.52h1.31l-0.52,0.79H34.3l-0.79,1.31l0.79,0.52L34.04,46.53z M32.99,44.96
				l1.05-1.57v-0.26c0-0.26-0.26-0.26-0.26-0.26c-0.26,0-0.26-0.26-0.52-0.26c-0.26,0-0.26,0-0.26,0.26l-1.31,1.31L32.99,44.96z"/>
			<path class="st0" d="M36.13,43.13l-2.09-3.93l0.52-0.79l4.19,1.05l-0.52,0.52l-0.79-0.26l-1.31,2.09l0.26,0.79L36.13,43.13z
				 M35.87,41.04l0.79-1.05l-1.57-0.26l0,0L35.87,41.04z"/>
			<path class="st0" d="M39.01,39.47l-0.52-0.52l-0.26-3.4l-1.57,1.83l-0.52-0.79l2.36-2.62l0.52,0.52l0.26,3.4l1.57-1.83l0.52,0.52
				L39.01,39.47z"/>
			<path class="st0" d="M41.63,36.59l-2.88-2.88l0.52-0.52l2.88,2.88L41.63,36.59z"/>
			<path class="st0" d="M42.15,35.8l-2.62-2.88l0.52-0.52l2.09,2.36l1.83-1.83l0.52,0.52L42.15,35.8z"/>
			<path class="st0" d="M45.03,33.45l-2.36-3.14l0.52-0.52l2.36,3.14L45.03,33.45z"/>
			<path class="st0" d="M45.55,32.92l-0.79-4.45l0.79-0.52l3.66,2.09l-0.52,0.52l-0.79-0.52l-1.83,1.31l0.26,0.79L45.55,32.92z
				 M45.81,30.83l1.31-0.79l-1.57-0.79l0,0L45.81,30.83z"/>
			<path class="st0" d="M49.22,30.31l-1.83-3.4l0.52-0.26l3.4,1.05L50,25.34l0.52-0.26l2.09,3.4l-0.52,0.26l-3.4-1.05L50,30.05
				L49.22,30.31z"/>
			<path class="st0" d="M54.19,27.69l-0.26-0.79l1.31-0.52c0.26-0.26,0.52-0.52,0.52-0.79s0-0.52-0.26-0.52l-0.79-1.83l0.52-0.52
				l0.79,1.83c0.26,0.26,0.26,0.52,0.26,1.05c0,0.52-0.26,1.05-0.79,1.31L54.19,27.69z"/>
			<path class="st0" d="M57.07,26.38l-1.31-3.66l0.52-0.26l1.57,3.66L57.07,26.38z"/>
			<path class="st0" d="M56.8,22.2l0.52-0.26l0.79,1.57c0.26,0.52,0.52,1.05,1.05,1.05c0.26,0,0.52,0,0.52,0
				c0.26,0,0.26-0.26,0.52-0.26c0.26-0.52,0.26-1.05,0-1.57l-0.52-1.57l0.79,0l0.52,1.57c0,0.52,0.26,0.79,0.26,1.31
				c0,0.79-0.52,1.31-1.31,1.57c-0.79,0.26-1.31,0-1.83-0.52c-0.26-0.26-0.52-0.79-0.52-1.05L56.8,22.2z"/>
			<path class="st0" d="M63.35,24.29V23.5l1.31-0.26c0.26,0,0.52-0.26,0.52-0.52c0-0.26,0-0.52,0-0.52l-0.26-1.83h0.79l0.26,1.83
				c0,0.26,0,0.79,0,1.05c0,0.52-0.52,1.05-1.05,1.31L63.35,24.29z"/>
			<path class="st0" d="M66.75,23.77l-0.52-3.93h0.79l0.52,3.93H66.75z"/>
			<path class="st0" d="M68.84,23.5l-0.26-3.14h-1.31v-0.79l3.4-0.26v0.79h-1.31l0.26,3.4H68.84z"/>
			<path class="st0" d="M71.2,23.24v-0.79h2.62c0.26,0,0.26-0.26,0.26-0.26c0-0.26,0-0.26-0.26-0.26h-1.83c-0.26,0-0.52,0-0.79-0.26
				c-0.26-0.26-0.26-0.52-0.26-0.79c0-0.26,0-0.52,0.26-0.79s0.26-0.26,0.79-0.26h2.62v0.79h-2.62c-0.26,0-0.26,0.26-0.26,0.26
				c0,0.26,0,0.26,0.26,0.26h1.83c0.26,0,0.52,0,0.79,0.26c0.26,0.26,0.26,0.52,0.26,0.79s0,0.52-0.26,0.79s-0.26,0.26-0.79,0.26
				H71.2z"/>
			<path class="st0" d="M75.38,19.32h0.79v1.57c0,0.52,0,1.05,0.52,1.57c0.26,0.26,0.26,0.26,0.52,0.26c0.26,0,0.52,0,0.52-0.26
				c0.52-0.26,0.52-0.79,0.79-1.31v-1.57h0.79v1.57c0,0.52,0,0.79-0.26,1.31c-0.79,0.52-1.31,1.05-2.09,1.05s-1.31-0.52-1.57-1.31
				c-0.26-0.52-0.26-0.79,0-1.31V19.32z"/>
		</g>
		<g>
			<path class="st0" d="M71.72,117.18v-0.79h2.36v2.36h-2.09c-0.52,0-1.05-0.52-1.31-1.05c0-0.26-0.26-0.79-0.26-1.05
				s0-0.79,0.26-1.05c0.26-0.52,0.79-1.05,1.31-1.05h2.09v0.79h-2.09c-0.26,0-0.52,0-0.52,0.26c-0.26,0.26-0.26,0.52-0.26,0.79
				s0,0.52,0.26,0.79c0.26,0.26,0.26,0.26,0.52,0.26h1.57v-0.79L71.72,117.18z"/>
			<path class="st0" d="M74.34,118.75l-0.26-3.93l2.62-0.26c0.52,0,0.79,0.26,1.05,0.79c0,0.26,0.26,0.52,0.26,0.79
				s0,0.79-0.26,1.05l-0.26,0.26l0.79,1.05h-0.79l-0.79-0.79h-1.57v1.05H74.34z M74.86,116.92h1.83c0.26,0,0.26,0,0.26-0.26
				s0-0.26,0-0.52c0-0.26,0-0.26-0.26-0.52l-0.26-0.26H74.6L74.86,116.92z"/>
			<path class="st0" d="M78.52,118.49l1.31-4.19h0.79l2.36,3.66h-0.79l-0.52-0.79l-2.09,0.26l-0.26,0.79L78.52,118.49z
				 M79.83,116.66l1.31-0.26l-0.79-1.31l0,0L79.83,116.66z"/>
			<path class="st0" d="M83.23,117.71l-0.79-3.93l0.52-0.26l2.88,2.09L85.33,113l0.79-0.26l0.79,3.93l-0.52,0.26l-3.14-1.83
				l0.52,2.62H83.23z"/>
			<path class="st0" d="M86.9,116.92l0.52-4.19l0.79-0.26l2.88,3.14l-0.79,0.26l-0.26-0.79l-2.09,0.79v0.79L86.9,116.92z
				 M87.94,114.83l1.31-0.52L88.2,113l0,0L87.94,114.83z"/>
			<path class="st0" d="M91.61,115.35l-1.57-3.66l2.09-0.79c0.52-0.26,1.05,0,1.57,0.26c0.26,0.26,0.52,0.52,0.52,0.79
				s0.26,0.79,0.26,1.05c0,0.52-0.26,1.05-0.79,1.31L91.61,115.35z M91.87,114.3l1.31-0.52c0.26,0,0.26-0.26,0.52-0.52
				c0-0.26,0-0.52,0-0.79s-0.26-0.52-0.52-0.79c-0.26,0-0.52-0.26-0.52,0l-1.31,0.52L91.87,114.3z"/>
			<path class="st0" d="M95.01,114.04l-0.26-4.19l0.79-0.26l3.4,2.62l-0.79,0.26l-0.52-0.52L95.79,113v0.79L95.01,114.04z
				 M95.53,111.95l1.31-0.79l-1.31-1.05l0,0V111.95z"/>
			<path class="st0" d="M99.46,109.59l-0.52-0.79l1.31-0.79l0.52,0.79L99.46,109.59z"/>
			<path class="st0" d="M102.86,109.07l-2.36-3.14l2.88-2.09l0.52,0.52l-2.36,1.83l0.52,0.52l1.57-1.31l0.52,0.52l-1.57,1.31
				l0.52,0.52l2.36-1.83l0.52,0.52L102.86,109.07z"/>
			<path class="st0" d="M106,106.72l-0.52-0.52l2.09-1.83c0,0,0-0.26,0-0.52c-0.26-0.26-0.26-0.26-0.52,0l-1.31,1.31
				c-0.26,0.26-0.52,0.26-0.79,0.26s-0.52-0.26-0.79-0.52c-0.26-0.26-0.26-0.52-0.26-0.79c0-0.26,0-0.52,0.26-0.79l2.09-1.83
				l0.52,0.52l-2.09,1.83c0,0,0,0.26,0,0.52c0.26,0.26,0.26,0.26,0.52,0l1.31-1.31c0.26-0.26,0.52-0.26,0.79-0.26
				c0.26,0,0.52,0.26,0.79,0.52c0.26,0.26,0.26,0.52,0.52,0.79c0,0.26,0,0.52-0.26,0.79L106,106.72z"/>
			<path class="st0" d="M108.88,104.1l-2.88-2.62l1.83-1.83c0.26-0.26,0.79-0.52,1.31-0.26c0.26,0,0.52,0.26,0.79,0.52
				c0.26,0.26,0.52,0.52,0.52,1.05c0,0.26,0,0.52-0.26,0.79l-1.31,1.31l0.79,0.52L108.88,104.1z M108.09,102.27l1.31-1.31v-0.26
				c0-0.26-0.26-0.26-0.26-0.52c-0.26-0.26-0.26-0.26-0.52-0.26c-0.26,0-0.26,0-0.26,0l-1.31,1.31L108.09,102.27z"/>
			<path class="st0" d="M111.23,101.74l-1.83-3.93l0.52-0.52l4.19,1.05l-0.52,0.52l-0.79-0.26l-1.31,1.83l0.26,0.79L111.23,101.74z
				 M110.97,99.65l0.79-1.05l-1.57-0.52l0,0L110.97,99.65z"/>
			<path class="st0" d="M111.23,94.68L111.23,94.68c-0.26-0.26-0.26-0.26-0.52-0.52c0,0-0.26-0.26,0-0.52c0,0,0,0,0.26,0l0,0l0,0
				l0,0l0,0l0,0l0,0l0.26-0.26l0.26,0.26l0.26,0.26c0,0,0.26,0.26,0,0.52l-0.26,0.26l0,0l0,0l0,0l0,0L111.23,94.68z M114.11,98.08
				l-3.14-2.09l0.26-0.52l3.66-0.52l-2.36-1.57l0.26-0.52l3.14,2.09l-0.26,0.52l-3.66,0.52l2.36,1.57L114.11,98.08z"/>
			<path class="st0" d="M116.47,94.68l-2.62-3.4l0.52-0.79l4.19,0.26l-0.26,0.79h-0.79l-1.05,1.83l0.52,0.52L116.47,94.68z
				 M115.68,92.58l0.79-1.31l-1.57-0.26l0,0L115.68,92.58z"/>
		</g>
	</g>
</g>
</svg>
