<?xml version="1.0" encoding="utf-8"?>
<!-- Generator: Adobe Illustrator 25.2.1, SVG Export Plug-In . SVG Version: 6.00 Build 0)  -->
<svg version="1.1" id="Layer_1" xmlns="http://www.w3.org/2000/svg" xmlns:xlink="http://www.w3.org/1999/xlink" x="0px" y="0px"
	 viewBox="0 0 277.3 50.8" style="enable-background:new 0 0 277.3 50.8;" xml:space="preserve">
<style type="text/css">
	.st0{fill:#FFFFFF;}
	.st1{fill:#FF2A0C;}
</style>
<g>
	<path class="st0" d="M54.9,28.5l-4.6-7.9L38.6,0.9c-0.3-0.5-0.8-0.8-1.4-0.8c0,0,0,0,0,0c-0.6,0-1.1,0.3-1.4,0.8l-1.5,2.6
		c-0.2-0.4-0.6-0.7-1-0.8c-1.7-0.4-3.5-0.6-5.2-0.6c-5,0-9.8,1.6-13.9,4.7c-3.9,3-6.8,7.1-8.1,11.8C5.9,19,6,19.5,6.2,19.9H2.6
		c-0.6,0-1.1,0.3-1.4,0.8s-0.3,1.1,0,1.6l16.3,27.7c0.3,0.5,0.8,0.8,1.4,0.8c0,0,0,0,0,0c0.6,0,1.1-0.3,1.4-0.8l1.9-3.2
		c0.2,0.4,0.6,0.7,1,0.8c1.6,0.3,3.2,0.5,4.9,0.5c5.1,0,9.9-1.6,13.9-4.7c3.7-2.8,6.5-6.7,7.9-11.1c0.1-0.4,0.1-0.9-0.1-1.3h3.8
		c0.6,0,1.1-0.3,1.4-0.8C55.2,29.6,55.2,29,54.9,28.5z"/>
	<g>
		<g>
			<path d="M7.6,19.1c1.3-4.4,3.9-8.2,7.6-11c3.7-2.8,8.2-4.3,12.9-4.3c1.6,0,3.3,0.2,4.9,0.6l-3.6,6.3c-0.4,0-0.8-0.1-1.3-0.1
				c-5.7,0-10.9,3.4-13.3,8.5H7.6z"/>
			<path d="M28.1,46.4c-1.5,0-3-0.2-4.5-0.5l3.6-6.3c0.3,0,0.6,0,0.9,0c5.4,0,10.5-3.1,13-7.9h7.3C47,35.8,44.4,39.4,41,42
				C37.3,44.9,32.8,46.4,28.1,46.4z"/>
		</g>
		<polygon class="st1" points="53.5,29.3 32.5,29.3 37,21.5 48.9,21.5 49.9,23.1 50,23.3 		"/>
		<polygon points="48.9,21.5 39.8,21.5 38.7,19.6 37.3,17.3 36,19.6 34.9,21.5 30.3,29.3 29.3,31.2 24.9,38.7 23.4,41.3 20.9,45.7 
			18.9,49.1 15.2,42.7 15.2,42.7 14.3,41.3 7.2,29.3 6.4,27.8 2.6,21.5 23.7,21.5 19.1,29.3 16.4,29.3 18.8,33.5 21.3,29.3 
			25.8,21.5 31.6,11.5 32.7,9.5 35.6,4.5 37.2,1.7 40.3,7 40.3,7 41.8,9.5 41.8,9.5 47.8,19.6 		"/>
		<g>
			<path class="st0" d="M12.2,18.2l-1.4-0.7l0.5-0.9c0-0.1,0.1-0.2,0.2-0.2c0.1,0,0.2,0,0.3,0.1c0.1,0,0.2,0.1,0.2,0.2
				c0.1,0,0.2,0,0.3,0.1c0.1,0,0.1,0.1,0.2,0.1c0.1,0.1,0.1,0.2,0.1,0.4L12.2,18.2z M11.5,17.5l0.4-0.7c0,0,0,0,0-0.1
				c0,0,0,0-0.1-0.1c-0.1,0-0.1,0-0.2,0l-0.4,0.7L11.5,17.5z M12.1,17.8l0.4-0.8c0,0,0-0.1-0.1-0.1c-0.1,0-0.1,0-0.2,0l-0.4,0.8
				L12.1,17.8z"/>
			<path class="st0" d="M12.9,16.8L11.6,16l0.5-0.8c0.1-0.2,0.3-0.2,0.4-0.2c0.1,0,0.2,0.1,0.3,0.1c0.1,0.1,0.2,0.2,0.3,0.3
				c0,0,0,0.1,0,0.2l0.5,0l-0.2,0.3l-0.4,0l-0.3,0.5l0.3,0.2L12.9,16.8z M12.5,16.2l0.4-0.6c0,0,0-0.1,0-0.1c0-0.1-0.1-0.1-0.1-0.1
				c-0.1,0-0.1-0.1-0.2-0.1c-0.1,0-0.1,0-0.1,0.1L12,15.9L12.5,16.2z"/>
			<path class="st0" d="M13.7,15.5L12.9,14l0.2-0.3l1.6,0.4l-0.2,0.2l-0.3-0.1L13.7,15l0.1,0.3L13.7,15.5z M13.6,14.7l0.3-0.4
				l-0.6-0.1l0,0L13.6,14.7z"/>
			<path class="st0" d="M14.8,14.1l-0.2-0.2l-0.1-1.3l-0.6,0.7L13.7,13l0.9-1l0.2,0.2l0.1,1.3l0.6-0.7l0.2,0.2L14.8,14.1z"/>
			<path class="st0" d="M15.8,13l-1.1-1.1l0.2-0.2l1.1,1.1L15.8,13z"/>
			<path class="st0" d="M16,12.7l-1-1.1l0.2-0.2l0.8,0.9l0.7-0.7l0.2,0.2L16,12.7z"/>
			<path class="st0" d="M17.1,11.8l-0.9-1.2l0.2-0.2l0.9,1.2L17.1,11.8z"/>
			<path class="st0" d="M17.3,11.6L17,9.9l0.3-0.2l1.4,0.8l-0.2,0.2l-0.3-0.2l-0.7,0.5l0.1,0.3L17.3,11.6z M17.4,10.8l0.5-0.3
				l-0.6-0.3l0,0L17.4,10.8z"/>
			<path class="st0" d="M18.7,10.6L18,9.3l0.2-0.1l1.3,0.4L19,8.7l0.2-0.1L20,9.9L19.8,10l-1.3-0.4l0.5,0.9L18.7,10.6z"/>
			<path class="st0" d="M20.6,9.6l-0.1-0.3L21,9.1c0.1-0.1,0.2-0.2,0.2-0.3c0-0.1,0-0.2-0.1-0.2l-0.3-0.7L21,7.7l0.3,0.7
				c0.1,0.1,0.1,0.2,0.1,0.4c0,0.2-0.1,0.4-0.3,0.5L20.6,9.6z"/>
			<path class="st0" d="M21.7,9.1l-0.5-1.4l0.2-0.1L22,9L21.7,9.1z"/>
			<path class="st0" d="M21.6,7.5l0.2-0.1L22.1,8c0.1,0.2,0.2,0.4,0.4,0.4c0.1,0,0.2,0,0.2,0c0.1,0,0.1-0.1,0.2-0.1
				c0.1-0.2,0.1-0.4,0-0.6l-0.2-0.6L23,7.1l0.2,0.6c0,0.2,0.1,0.3,0.1,0.5c0,0.3-0.2,0.5-0.5,0.6c-0.3,0.1-0.5,0-0.7-0.2
				c-0.1-0.1-0.2-0.3-0.2-0.4L21.6,7.5z"/>
			<path class="st0" d="M24.1,8.3L24.1,8l0.5-0.1c0.1,0,0.2-0.1,0.2-0.2c0-0.1,0-0.2,0-0.2l-0.1-0.7l0.3,0l0.1,0.7
				c0,0.1,0,0.3,0,0.4c0,0.2-0.2,0.4-0.4,0.5L24.1,8.3z"/>
			<path class="st0" d="M25.4,8.1l-0.2-1.5l0.3,0l0.2,1.5L25.4,8.1z"/>
			<path class="st0" d="M26.2,8l-0.1-1.2l-0.5,0l0-0.3l1.3-0.1l0,0.3l-0.5,0L26.5,8L26.2,8z"/>
			<path class="st0" d="M27.1,7.9l0-0.3l1,0c0.1,0,0.1-0.1,0.1-0.1c0-0.1,0-0.1-0.1-0.1l-0.7,0c-0.1,0-0.2,0-0.3-0.1
				c-0.1-0.1-0.1-0.2-0.1-0.3c0-0.1,0-0.2,0.1-0.3c0.1-0.1,0.1-0.1,0.3-0.1l1,0l0,0.3l-1,0c-0.1,0-0.1,0.1-0.1,0.1
				c0,0.1,0,0.1,0.1,0.1l0.7,0c0.1,0,0.2,0,0.3,0.1c0.1,0.1,0.1,0.2,0.1,0.3c0,0.1,0,0.2-0.1,0.3c-0.1,0.1-0.1,0.1-0.3,0.1L27.1,7.9
				z"/>
			<path class="st0" d="M28.7,6.4l0.3,0l0,0.6c0,0.2,0,0.4,0.2,0.6c0.1,0.1,0.1,0.1,0.2,0.1c0.1,0,0.2,0,0.2-0.1
				c0.2-0.1,0.2-0.3,0.3-0.5l0-0.6l0.3,0l0,0.6c0,0.2,0,0.3-0.1,0.5C29.8,7.8,29.6,8,29.3,8c-0.3,0-0.5-0.2-0.6-0.5
				c-0.1-0.2-0.1-0.3,0-0.5L28.7,6.4z"/>
		</g>
		<g>
			<path class="st0" d="M27.3,43.8l0-0.3l0.9,0l0,0.9l-0.8,0c-0.2,0-0.4-0.2-0.5-0.4c0-0.1-0.1-0.3-0.1-0.4c0-0.1,0-0.3,0.1-0.4
				c0.1-0.2,0.3-0.4,0.5-0.4l0.8,0l0,0.3l-0.8,0c-0.1,0-0.2,0-0.2,0.1c-0.1,0.1-0.1,0.2-0.1,0.3c0,0.1,0,0.2,0.1,0.3
				c0.1,0.1,0.1,0.1,0.2,0.1l0.6,0l0-0.3L27.3,43.8z"/>
			<path class="st0" d="M28.3,44.4l-0.1-1.5l1-0.1c0.2,0,0.3,0.1,0.4,0.3c0,0.1,0.1,0.2,0.1,0.3c0,0.1,0,0.3-0.1,0.4
				c0,0-0.1,0.1-0.1,0.1l0.3,0.4l-0.3,0L29.2,44l-0.6,0l0,0.4L28.3,44.4z M28.5,43.7l0.7,0c0.1,0,0.1,0,0.1-0.1c0-0.1,0-0.1,0-0.2
				c0-0.1,0-0.1-0.1-0.2c0,0-0.1-0.1-0.1-0.1l-0.7,0L28.5,43.7z"/>
			<path class="st0" d="M29.9,44.3l0.5-1.6l0.3,0l0.9,1.4l-0.3,0l-0.2-0.3l-0.8,0.1l-0.1,0.3L29.9,44.3z M30.4,43.6l0.5-0.1L30.6,43
				l0,0L30.4,43.6z"/>
			<path class="st0" d="M31.7,44l-0.3-1.5l0.2-0.1l1.1,0.8l-0.2-1l0.3-0.1l0.3,1.5l-0.2,0.1L31.7,43l0.2,1L31.7,44z"/>
			<path class="st0" d="M33.1,43.7l0.2-1.6l0.3-0.1l1.1,1.2l-0.3,0.1L34.3,43l-0.8,0.3l0,0.3L33.1,43.7z M33.5,42.9l0.5-0.2
				l-0.4-0.5l0,0L33.5,42.9z"/>
			<path class="st0" d="M34.9,43.1l-0.6-1.4l0.8-0.3c0.2-0.1,0.4,0,0.6,0.1c0.1,0.1,0.2,0.2,0.2,0.3c0,0.1,0.1,0.3,0.1,0.4
				c0,0.2-0.1,0.4-0.3,0.5L34.9,43.1z M35,42.7l0.5-0.2c0.1,0,0.1-0.1,0.2-0.2c0-0.1,0-0.2,0-0.3c0-0.1-0.1-0.2-0.2-0.3
				c-0.1,0-0.2-0.1-0.2,0l-0.5,0.2L35,42.7z"/>
			<path class="st0" d="M36.2,42.6l-0.1-1.6l0.3-0.1l1.3,1l-0.3,0.1l-0.2-0.2l-0.7,0.4l0,0.3L36.2,42.6z M36.4,41.8l0.5-0.3
				l-0.5-0.4l0,0L36.4,41.8z"/>
			<path class="st0" d="M37.9,40.9l-0.2-0.3l0.5-0.3l0.2,0.3L37.9,40.9z"/>
			<path class="st0" d="M39.2,40.7l-0.9-1.2l1.1-0.8l0.2,0.2l-0.9,0.7l0.2,0.2l0.6-0.5l0.2,0.2l-0.6,0.5l0.2,0.2l0.9-0.7l0.2,0.2
				L39.2,40.7z"/>
			<path class="st0" d="M40.4,39.8l-0.2-0.2l0.8-0.7c0,0,0-0.1,0-0.2c-0.1-0.1-0.1-0.1-0.2,0l-0.5,0.5c-0.1,0.1-0.2,0.1-0.3,0.1
				c-0.1,0-0.2-0.1-0.3-0.2c-0.1-0.1-0.1-0.2-0.1-0.3c0-0.1,0-0.2,0.1-0.3l0.8-0.7l0.2,0.2l-0.8,0.7c0,0,0,0.1,0,0.2
				c0.1,0.1,0.1,0.1,0.2,0l0.5-0.5c0.1-0.1,0.2-0.1,0.3-0.1c0.1,0,0.2,0.1,0.3,0.2c0.1,0.1,0.1,0.2,0.2,0.3c0,0.1,0,0.2-0.1,0.3
				L40.4,39.8z"/>
			<path class="st0" d="M41.5,38.8l-1.1-1l0.7-0.7c0.1-0.1,0.3-0.2,0.5-0.1c0.1,0,0.2,0.1,0.3,0.2c0.1,0.1,0.2,0.2,0.2,0.4
				c0,0.1,0,0.2-0.1,0.3l-0.5,0.5l0.3,0.2L41.5,38.8z M41.2,38.1l0.5-0.5c0,0,0-0.1,0-0.1c0-0.1-0.1-0.1-0.1-0.2
				c-0.1-0.1-0.1-0.1-0.2-0.1c-0.1,0-0.1,0-0.1,0l-0.5,0.5L41.2,38.1z"/>
			<path class="st0" d="M42.4,37.9l-0.7-1.5l0.2-0.2l1.6,0.4l-0.2,0.2L43,36.7l-0.5,0.7l0.1,0.3L42.4,37.9z M42.3,37.1l0.3-0.4
				L42,36.5l0,0L42.3,37.1z"/>
			<path class="st0" d="M42.4,35.2L42.4,35.2c-0.1-0.1-0.1-0.1-0.2-0.2c0,0-0.1-0.1,0-0.2c0,0,0,0,0.1,0c0,0,0,0,0,0c0,0,0,0,0,0
				c0,0,0,0,0,0l0,0c0,0,0,0,0,0l0,0l0.1-0.1l0.1,0.1c0,0,0.1,0.1,0.1,0.1c0,0,0.1,0.1,0,0.2c0,0-0.1,0.1-0.1,0.1c0,0,0,0,0,0
				c0,0,0,0,0,0c0,0,0,0,0,0l0,0L42.4,35.2z M43.5,36.5l-1.2-0.8l0.1-0.2l1.4-0.2l-0.9-0.6l0.1-0.2l1.2,0.8l-0.1,0.2l-1.4,0.2
				l0.9,0.6L43.5,36.5z"/>
			<path class="st0" d="M44.4,35.2l-1-1.3l0.2-0.3l1.6,0.1L45.1,34l-0.3,0l-0.4,0.7l0.2,0.2L44.4,35.2z M44.1,34.4l0.3-0.5l-0.6-0.1
				l0,0L44.1,34.4z"/>
		</g>
	</g>
</g>
<g>
	<path class="st0" d="M73.1,6.3V18c0,1.8-0.5,3.2-1.5,4.2s-2.4,1.5-4.1,1.5c-1.8,0-3.3-0.5-4.4-1.5c-1.1-1-1.6-2.5-1.6-4.4h4.2
		c0,0.7,0.1,1.3,0.4,1.6c0.3,0.4,0.7,0.6,1.3,0.6c0.5,0,0.9-0.2,1.2-0.5c0.3-0.3,0.4-0.8,0.4-1.4V6.3H73.1z"/>
	<path class="st0" d="M88.9,14.6c-0.5,0.8-1.2,1.5-2.1,2c-0.9,0.5-2.1,0.8-3.5,0.8h-2.6v6.2h-4.2V6.3h6.8c1.4,0,2.5,0.2,3.5,0.7
		c0.9,0.5,1.7,1.1,2.1,2c0.5,0.8,0.7,1.8,0.7,2.9C89.6,12.8,89.3,13.7,88.9,14.6z M84.7,13.4c0.4-0.4,0.6-0.9,0.6-1.6
		c0-0.7-0.2-1.2-0.6-1.6s-1-0.6-1.8-0.6h-2.3V14h2.3C83.7,14,84.3,13.8,84.7,13.4z"/>
	<path class="st0" d="M97.3,10.3c0.7-1.3,1.8-2.4,3.1-3.1c1.3-0.7,2.8-1.1,4.5-1.1c2,0,3.8,0.5,5.2,1.6c1.5,1.1,2.4,2.5,2.9,4.4
		h-4.6c-0.3-0.7-0.8-1.3-1.5-1.6c-0.6-0.4-1.3-0.6-2.1-0.6c-1.3,0-2.3,0.5-3.1,1.3c-0.8,0.9-1.2,2.1-1.2,3.6s0.4,2.7,1.2,3.6
		c0.8,0.9,1.8,1.3,3.1,1.3c0.8,0,1.5-0.2,2.1-0.6s1.1-0.9,1.5-1.6h4.6c-0.5,1.9-1.5,3.3-2.9,4.4c-1.5,1.1-3.2,1.6-5.2,1.6
		c-1.7,0-3.2-0.4-4.5-1.1c-1.3-0.7-2.3-1.8-3.1-3.1c-0.7-1.3-1.1-2.8-1.1-4.5C96.2,13.2,96.6,11.7,97.3,10.3z"/>
	<path class="st0" d="M126.3,20.5h-6.4l-1,3h-4.4l6.2-17.2h4.9l6.2,17.2h-4.4L126.3,20.5z M125.3,17.2l-2.1-6.3l-2.1,6.3H125.3z"/>
	<path class="st0" d="M153.2,6.3v17.2H149V13.2l-3.8,10.3h-3.4l-3.9-10.3v10.3h-4.2V6.3h4.9l4.8,11.9l4.8-11.9H153.2z"/>
	<path class="st0" d="M168.6,14.6c-0.5,0.8-1.2,1.5-2.1,2c-0.9,0.5-2.1,0.8-3.5,0.8h-2.6v6.2h-4.2V6.3h6.8c1.4,0,2.5,0.2,3.5,0.7
		c0.9,0.5,1.7,1.1,2.1,2s0.7,1.8,0.7,2.9C169.3,12.8,169.1,13.7,168.6,14.6z M164.4,13.4c0.4-0.4,0.6-0.9,0.6-1.6
		c0-0.7-0.2-1.2-0.6-1.6c-0.4-0.4-1-0.6-1.8-0.6h-2.3V14h2.3C163.4,14,164,13.8,164.4,13.4z"/>
	<path class="st0" d="M175.2,22.5c-1.3-0.8-2.4-1.8-3.2-3.1c-0.8-1.3-1.2-2.9-1.2-4.5s0.4-3.2,1.2-4.5c0.8-1.3,1.9-2.4,3.2-3.1
		c1.3-0.8,2.8-1.1,4.4-1.1s3.1,0.4,4.4,1.1c1.3,0.8,2.4,1.8,3.2,3.1c0.8,1.3,1.2,2.9,1.2,4.5s-0.4,3.2-1.2,4.5s-1.8,2.4-3.2,3.1
		c-1.3,0.8-2.8,1.1-4.4,1.1S176.5,23.3,175.2,22.5z M182.9,18.5c0.8-0.9,1.2-2.1,1.2-3.6c0-1.5-0.4-2.7-1.2-3.6
		c-0.8-0.9-1.9-1.4-3.3-1.4c-1.4,0-2.5,0.4-3.3,1.3c-0.8,0.9-1.2,2.1-1.2,3.7c0,1.5,0.4,2.7,1.2,3.6c0.8,0.9,1.9,1.4,3.3,1.4
		C181,19.9,182.1,19.4,182.9,18.5z"/>
	<path class="st0" d="M193.6,23.1c-1-0.4-1.8-1-2.4-1.8c-0.6-0.8-0.9-1.8-0.9-2.9h4.5c0.1,0.6,0.3,1.1,0.7,1.5
		c0.4,0.3,0.9,0.5,1.5,0.5c0.6,0,1.1-0.1,1.5-0.4s0.5-0.7,0.5-1.2c0-0.4-0.1-0.8-0.4-1.1c-0.3-0.3-0.6-0.5-1.1-0.7s-1-0.4-1.8-0.6
		c-1.1-0.3-2-0.7-2.7-1c-0.7-0.3-1.3-0.8-1.8-1.5c-0.5-0.7-0.8-1.5-0.8-2.6c0-1.6,0.6-2.9,1.7-3.8c1.2-0.9,2.7-1.4,4.5-1.4
		c1.9,0,3.4,0.5,4.6,1.4c1.2,0.9,1.8,2.2,1.9,3.8h-4.5c0-0.6-0.2-1-0.6-1.3c-0.4-0.3-0.9-0.5-1.4-0.5c-0.5,0-0.9,0.1-1.2,0.4
		c-0.3,0.3-0.5,0.7-0.5,1.2c0,0.6,0.3,1,0.8,1.3c0.5,0.3,1.3,0.6,2.4,1c1.1,0.4,2,0.7,2.7,1.1c0.7,0.3,1.3,0.8,1.8,1.5
		c0.5,0.7,0.8,1.5,0.8,2.5c0,1-0.2,1.9-0.7,2.7s-1.2,1.4-2.2,1.9s-2.1,0.7-3.4,0.7C195.7,23.7,194.6,23.5,193.6,23.1z"/>
	<path class="st0" d="M223.4,6.3v3.4h-4.6v13.8h-4.2V9.7h-4.6V6.3H223.4z"/>
	<path class="st0" d="M229.7,9.7v3.5h5.6v3.2h-5.6v3.8h6.3v3.4h-10.5V6.3H236v3.4H229.7z"/>
	<path class="st0" d="M249.4,20.5H243l-1,3h-4.4l6.2-17.2h4.9l6.2,17.2h-4.4L249.4,20.5z M248.4,17.2l-2.1-6.3l-2.1,6.3H248.4z"/>
	<path class="st0" d="M276.3,6.3v17.2h-4.2V13.2l-3.8,10.3h-3.4L261,13.2v10.3h-4.2V6.3h5l4.8,11.9l4.8-11.9H276.3z"/>
</g>
<g>
	<g>
		<path class="st0" d="M130.6,37.8c-0.3-0.7-0.9-1.3-1.5-1.7c-0.7-0.4-1.4-0.6-2.3-0.6c-0.9,0-1.7,0.2-2.4,0.6
			c-0.7,0.4-1.3,1-1.7,1.7c-0.4,0.8-0.6,1.6-0.6,2.6c0,1,0.2,1.8,0.6,2.6c0.4,0.7,1,1.3,1.7,1.7s1.5,0.6,2.4,0.6
			c1.2,0,2.2-0.4,3-1.1c0.8-0.7,1.3-1.7,1.4-3h-5V40h6.8v1.3c-0.1,1-0.4,2-1,2.8s-1.3,1.5-2.2,2s-1.9,0.7-3,0.7
			c-1.2,0-2.2-0.3-3.2-0.8c-1-0.5-1.7-1.3-2.3-2.3c-0.6-1-0.8-2.1-0.8-3.3c0-1.2,0.3-2.3,0.8-3.3c0.6-1,1.3-1.7,2.3-2.3
			c1-0.5,2-0.8,3.2-0.8c1.3,0,2.5,0.3,3.5,1c1,0.7,1.8,1.6,2.2,2.8H130.6z"/>
		<path class="st0" d="M143.4,46.7l-3-5.1h-2v5.1h-1.6V34.2h4c0.9,0,1.7,0.2,2.4,0.5c0.7,0.3,1.1,0.8,1.5,1.3
			c0.3,0.6,0.5,1.2,0.5,1.9c0,0.9-0.2,1.6-0.7,2.3c-0.5,0.7-1.2,1.1-2.2,1.3l3.1,5.3H143.4z M138.4,40.3h2.4c0.9,0,1.6-0.2,2-0.7
			c0.4-0.4,0.7-1,0.7-1.8c0-0.7-0.2-1.3-0.7-1.7c-0.4-0.4-1.1-0.6-2-0.6h-2.4V40.3z"/>
		<path class="st0" d="M156.8,43.9h-5.5l-1,2.8h-1.7l4.5-12.5h1.9l4.5,12.5h-1.7L156.8,43.9z M156.3,42.6l-2.3-6.3l-2.3,6.3H156.3z"
			/>
		<path class="st0" d="M173,46.7h-1.6l-6.6-10v10h-1.6V34.2h1.6l6.6,10v-10h1.6V46.7z"/>
		<path class="st0" d="M184.8,43.9h-5.5l-1,2.8h-1.7l4.5-12.5h1.9l4.5,12.5h-1.7L184.8,43.9z M184.4,42.6l-2.3-6.3l-2.3,6.3H184.4z"
			/>
		<path class="st0" d="M198.7,34.9c1,0.5,1.8,1.2,2.3,2.2c0.5,0.9,0.8,2.1,0.8,3.3s-0.3,2.4-0.8,3.3c-0.5,0.9-1.3,1.7-2.3,2.2
			c-1,0.5-2.2,0.7-3.6,0.7h-3.9V34.2h3.9C196.5,34.2,197.7,34.4,198.7,34.9z M198.8,44.1c0.9-0.9,1.3-2.1,1.3-3.6
			c0-1.6-0.4-2.8-1.3-3.7c-0.9-0.9-2.1-1.3-3.7-1.3h-2.3v9.9h2.3C196.7,45.4,198,44.9,198.8,44.1z"/>
		<path class="st0" d="M213,43.9h-5.5l-1,2.8h-1.7l4.5-12.5h1.9l4.5,12.5H214L213,43.9z M212.5,42.6l-2.3-6.3l-2.3,6.3H212.5z"/>
	</g>
</g>
</svg>
